<svg width="24" height="24" viewBox="0 0 24 24" fill="none" xmlns="http://www.w3.org/2000/svg">
<g clip-path="url(#clip0_19_141)">
<path d="M0.221009 4.28302C0.118407 4.11481 0.0499495 3.92803 0.0195488 3.73336C-0.0108519 3.53868 -0.00260057 3.33992 0.0438314 3.14844C0.0902634 2.95695 0.173966 2.77649 0.290158 2.61736C0.406351 2.45823 0.552755 2.32355 0.721009 2.22102L3.98901 0.221021C4.15706 0.109115 4.34598 0.0322885 4.54444 -0.00485513C4.7429 -0.0419988 4.94681 -0.0386949 5.14396 0.0048585C5.34111 0.0484119 5.52744 0.131318 5.69178 0.248609C5.85612 0.365901 5.99509 0.515162 6.10036 0.687449C6.20563 0.859737 6.27504 1.0515 6.30442 1.25126C6.3338 1.45101 6.32255 1.65464 6.27135 1.84995C6.22015 2.04525 6.13004 2.2282 6.00644 2.38785C5.88283 2.54749 5.72827 2.68054 5.55201 2.77902L2.28301 4.77902C2.1148 4.88162 1.92802 4.95008 1.73334 4.98048C1.53867 5.01088 1.33991 5.00263 1.14843 4.9562C0.95694 4.90977 0.776479 4.82606 0.61735 4.70987C0.458221 4.59368 0.323543 4.44727 0.221009 4.27902V4.28302ZM23.288 17.983C22.9495 17.7742 22.5418 17.7084 22.1547 17.8001C21.7677 17.8918 21.4329 18.1335 21.224 18.472L19.224 21.713C19.1159 21.8806 19.0422 22.0681 19.0074 22.2646C18.9726 22.461 18.9774 22.6624 19.0213 22.8569C19.0653 23.0515 19.1476 23.2354 19.2635 23.3977C19.3794 23.5601 19.5265 23.6977 19.6963 23.8025C19.866 23.9073 20.0549 23.9772 20.252 24.0081C20.4491 24.0391 20.6503 24.0303 20.844 23.9825C21.0376 23.9347 21.2198 23.8488 21.3799 23.7297C21.5399 23.6106 21.6746 23.4608 21.776 23.289L23.776 20.048C23.8798 19.8804 23.9494 19.6939 23.9811 19.4993C24.0127 19.3047 24.0057 19.1057 23.9603 18.9138C23.915 18.722 23.8323 18.5409 23.7169 18.381C23.6016 18.2211 23.4558 18.0855 23.288 17.982V17.983ZM20.835 15.483L17.235 21.348C16.7972 22.0652 16.2017 22.6731 15.4936 23.1255C14.7856 23.578 13.9837 23.863 13.149 23.959C12.9289 23.9844 12.7076 23.9975 12.486 23.998C11.2569 23.9931 10.0648 23.5766 9.10001 22.815C8.31524 23.5759 7.26383 23.9993 6.17078 23.9948C5.07774 23.9902 4.0299 23.558 3.25153 22.7906C2.47315 22.0232 2.02608 20.9816 2.00598 19.8887C1.98589 18.7958 2.39437 17.7385 3.14401 16.943L1.65001 15.443C1.05207 14.85 0.597192 14.1285 0.319945 13.3333C0.042698 12.5382 -0.0496196 11.6902 0.0500093 10.854C0.144807 10.0261 0.427063 9.23073 0.875331 8.52826C1.3236 7.8258 1.92608 7.23475 2.63701 6.80002L8.12401 3.41302C9.63754 2.44456 11.4068 1.95232 13.203 1.99992C14.9992 2.04752 16.7399 2.63276 18.2 3.68002L19.44 2.43902C19.7214 2.15763 20.1031 1.99954 20.501 1.99954C20.899 1.99954 21.2806 2.15763 21.562 2.43902C21.8434 2.72042 22.0015 3.10207 22.0015 3.50002C22.0015 3.89797 21.8434 4.27963 21.562 4.56102L20.323 5.80002C21.3182 7.19972 21.8948 8.85362 21.9855 10.5687C22.0761 12.2837 21.6771 13.9892 20.835 15.486V15.483ZM17.235 6.77602C16.2647 5.79982 14.9892 5.18565 13.6209 5.03589C12.2527 4.88613 10.8745 5.20982 9.71601 5.95302L4.21601 9.35302C3.89156 9.55204 3.61669 9.82233 3.41224 10.1434C3.20779 10.4644 3.07912 10.8278 3.03601 11.206C2.99032 11.5926 3.0334 11.9844 3.16198 12.3518C3.29056 12.7191 3.50125 13.0523 3.77801 13.326L10.69 20.254C10.964 20.5268 11.2961 20.734 11.6614 20.8602C12.0268 20.9864 12.416 21.0283 12.7999 20.9828C13.1838 20.9374 13.5524 20.8056 13.8782 20.5975C14.2039 20.3894 14.4784 20.1102 14.681 19.781L18.254 13.963C18.8879 12.8175 19.1314 11.4968 18.9477 10.2006C18.764 8.9044 18.1631 7.7033 17.236 6.77902L17.235 6.77602Z" fill="white"/>
</g>
<defs>
<clipPath id="clip0_19_141">
<rect width="24" height="24" fill="white"/>
</clipPath>
</defs>
</svg>
