<svg width="24" height="24" viewBox="0 0 24 24" fill="none" xmlns="http://www.w3.org/2000/svg">
<g clip-path="url(#clip0_19_176)">
<path d="M18.7132 12H14.0002C12.8957 12 12.0002 11.1045 12.0002 9.99998V5.274C12.003 4.34166 11.5721 3.46097 10.8342 2.89102C10.135 2.33733 9.21823 2.13999 8.3532 2.35702C2.47367 3.81652 -1.1095 9.76603 0.350046 15.6456C1.37834 19.788 4.71622 22.9579 8.90623 23.771C14.6301 24.8666 20.2152 21.3079 21.6402 15.657C21.8581 14.7908 21.6611 13.8727 21.1072 13.172C20.5307 12.4355 19.6486 12.0036 18.7132 12Z" fill="#04ECA6"/>
<path d="M23.6508 7.44611C23.4225 6.59758 23.0826 5.78312 22.6398 5.02413C21.3081 2.73953 19.1327 1.06905 16.5818 0.37211C16.4138 0.326782 16.0378 0.30011 16.0378 0.30011C15.9034 0.300157 15.3248 0.30011 14.8668 0.671125C14.1936 1.20086 14.0878 1.80311 14.0778 1.85013C14.0429 1.99759 14.0247 2.14858 14.0238 2.30013V7.00014C14.0238 8.65698 15.367 10.0001 17.0238 10.0001H21.7428C22.3689 10.0019 22.9581 9.70469 23.3288 9.20012C23.603 8.83052 23.744 8.37902 23.7288 7.91913C23.7209 7.759 23.6947 7.60028 23.6508 7.44611Z" fill="#04ECA6"/>
</g>
<defs>
<clipPath id="clip0_19_176">
<rect width="24" height="24" fill="white"/>
</clipPath>
</defs>
</svg>
