<svg width="24" height="24" viewBox="0 0 24 24" fill="none" xmlns="http://www.w3.org/2000/svg">
<g clip-path="url(#clip0_21_88)">
<path d="M18.7128 11.9999H13.9998C13.4694 11.9999 12.9607 11.7891 12.5856 11.4141C12.2106 11.039 11.9998 10.5303 11.9998 9.99986V5.27386C12.0012 4.81384 11.8968 4.35967 11.6946 3.94647C11.4924 3.53326 11.1979 3.17208 10.8338 2.89086C10.4889 2.61767 10.0857 2.42744 9.65555 2.33485C9.22537 2.24225 8.77966 2.24979 8.35285 2.35686C5.9285 2.95867 3.78218 4.36992 2.26882 6.35722C0.755461 8.34453 -0.0342771 10.7888 0.0302084 13.2859C0.0946938 15.783 1.00954 18.1833 2.62345 20.0899C4.23737 21.9964 6.45367 23.295 8.90585 23.7709C11.663 24.2986 14.5175 23.7523 16.8849 22.2438C19.2523 20.7353 20.9534 18.3788 21.6398 15.6569C21.7473 15.2295 21.7552 14.7832 21.6627 14.3523C21.5703 13.9214 21.3801 13.5176 21.1068 13.1719C20.8223 12.8083 20.4591 12.514 20.0444 12.311C19.6298 12.108 19.1745 12.0016 18.7128 11.9999ZM19.7008 15.1679C19.318 16.7097 18.5324 18.1222 17.4245 19.2609C16.3166 20.3995 14.9262 21.2235 13.3954 21.6484C11.8646 22.0734 10.2484 22.0841 8.71205 21.6795C7.17574 21.2749 5.77447 20.4695 4.65156 19.3457C3.52864 18.2218 2.7244 16.8199 2.32107 15.2833C1.91774 13.7466 1.92981 12.1304 2.35605 10.6C2.78228 9.06952 3.60738 7.67975 4.74695 6.5728C5.88652 5.46586 7.29967 4.68147 8.84185 4.29986C8.97378 4.2669 9.1116 4.26529 9.24427 4.29515C9.37694 4.32502 9.50077 4.38554 9.60585 4.47186C9.72994 4.56647 9.83057 4.68839 9.89994 4.82817C9.96931 4.96794 10.0055 5.12182 10.0058 5.27786V9.99986C10.0058 11.0607 10.4273 12.0781 11.1774 12.8283C11.9276 13.5784 12.945 13.9999 14.0058 13.9999H18.7178C18.8753 14.0005 19.0305 14.0368 19.1718 14.1061C19.3131 14.1754 19.4369 14.2758 19.5338 14.3999C19.6189 14.5064 19.6781 14.6312 19.7069 14.7644C19.7357 14.8976 19.7333 15.0357 19.6998 15.1679H19.7008Z" fill="#ABAFD1"/>
<path d="M23.6512 7.44614C23.1908 5.75361 22.2965 4.21064 21.0566 2.96992C19.8168 1.72919 18.2744 0.83373 16.5822 0.372139C16.4048 0.324449 16.2219 0.300242 16.0382 0.300139C15.774 0.297629 15.5119 0.347507 15.267 0.446892C15.0222 0.546277 14.7994 0.693198 14.6117 0.879165C14.424 1.06513 14.275 1.28646 14.1733 1.53036C14.0716 1.77426 14.0192 2.03589 14.0192 2.30014V7.00014C14.0192 7.79579 14.3353 8.55885 14.8979 9.12146C15.4605 9.68407 16.2236 10.0001 17.0192 10.0001H21.7382C22.0469 9.99717 22.3507 9.92308 22.6261 9.78362C22.9015 9.64416 23.141 9.44309 23.3261 9.19602C23.5111 8.94896 23.6367 8.66256 23.6931 8.35908C23.7495 8.05559 23.7352 7.74319 23.6512 7.44614V7.44614ZM21.1532 8.00014H17.0152C16.75 8.00014 16.4957 7.89478 16.3081 7.70725C16.1206 7.51971 16.0152 7.26536 16.0152 7.00014L16.0072 2.30714C16.0145 2.30185 16.0232 2.29873 16.0322 2.29814H16.0582C17.4203 2.66922 18.6613 3.39105 19.6573 4.39158C20.6532 5.39211 21.3694 6.63636 21.7342 8.00014H21.1532Z" fill="#ABAFD1"/>
</g>
<defs>
<clipPath id="clip0_21_88">
<rect width="24" height="24" fill="white"/>
</clipPath>
</defs>
</svg>
